<svg width="250" height="253" viewBox="0 0 250 253" fill="none" xmlns="http://www.w3.org/2000/svg">
<rect y="0.769531" width="250" height="250" rx="125" fill="#2F364D"/>
<path d="M141.89 202.976C142.733 202.498 143.695 203.378 143.294 204.26L141.711 207.741C141.532 208.136 141.627 208.601 141.947 208.893L144.769 211.474C145.484 212.128 144.944 213.315 143.982 213.206L140.181 212.777C139.751 212.728 139.338 212.962 139.159 213.356L137.576 216.838C137.175 217.72 135.88 217.574 135.686 216.625L134.92 212.878C134.833 212.453 134.483 212.133 134.052 212.084L130.252 211.655C129.29 211.546 129.028 210.269 129.871 209.791L133.198 207.905C133.575 207.691 133.771 207.259 133.684 206.835L132.918 203.088C132.724 202.139 133.858 201.496 134.573 202.15L137.395 204.731C137.715 205.023 138.187 205.076 138.563 204.863L141.89 202.976Z" fill="#FFDA79"/>
<path d="M84.6201 15.6744C84.4663 14.9856 85.2836 14.5024 85.8129 14.9691L87.9026 16.8118C88.1393 17.0205 88.4835 17.0531 88.7551 16.8925L91.1534 15.4745C91.7608 15.1153 92.473 15.7433 92.1926 16.391L91.0859 18.9478C90.9605 19.2374 91.0359 19.5748 91.2726 19.7835L93.3623 21.6262C93.8916 22.0929 93.5144 22.9643 92.8118 22.8978L90.0382 22.6354C89.724 22.6056 89.4264 22.7816 89.301 23.0712L88.1943 25.628C87.914 26.2756 86.9687 26.1862 86.8148 25.4975L86.2073 22.7784C86.1385 22.4704 85.8792 22.2418 85.565 22.212L82.7913 21.9496C82.0888 21.8831 81.8818 20.9564 82.4892 20.5972L84.8874 19.1793C85.1591 19.0187 85.2964 18.7014 85.2276 18.3934L84.6201 15.6744Z" fill="#FFDA79"/>
<path d="M231.835 136.356C232.308 135.871 233.125 136.274 233.027 136.945L232.643 139.59C232.599 139.89 232.754 140.184 233.025 140.318L235.423 141.501C236.03 141.801 235.899 142.703 235.231 142.817L232.596 143.269C232.298 143.32 232.066 143.557 232.022 143.857L231.638 146.503C231.54 147.173 230.642 147.327 230.327 146.728L229.083 144.361C228.942 144.093 228.645 143.946 228.346 143.997L225.711 144.449C225.044 144.563 224.62 143.757 225.093 143.272L226.959 141.358C227.17 141.141 227.218 140.813 227.077 140.544L225.833 138.178C225.518 137.579 226.154 136.926 226.761 137.226L229.159 138.409C229.43 138.543 229.757 138.487 229.969 138.27L231.835 136.356Z" fill="#FFDA79"/>
<path d="M114.835 57.3561C115.308 56.8712 116.125 57.2745 116.027 57.9446L115.643 60.5903C115.599 60.89 115.754 61.1837 116.025 61.3178L118.423 62.5012C119.03 62.8009 118.899 63.7026 118.231 63.817L115.596 64.2688C115.298 64.3199 115.066 64.5575 115.022 64.8572L114.638 67.5029C114.54 68.1731 113.642 68.327 113.327 67.7276L112.083 65.3611C111.942 65.093 111.645 64.9461 111.346 64.9973L108.711 65.4491C108.044 65.5635 107.62 64.757 108.093 64.2721L109.959 62.3577C110.17 62.1409 110.218 61.8126 110.077 61.5445L108.833 59.178C108.518 58.5785 109.154 57.9261 109.761 58.2259L112.159 59.4093C112.43 59.5433 112.757 59.4872 112.969 59.2704L114.835 57.3561Z" fill="#FFDA79"/>
<path d="M166.835 12.3561C167.308 11.8712 168.125 12.2745 168.027 12.9446L167.643 15.5903C167.599 15.89 167.754 16.1837 168.025 16.3178L170.423 17.5012C171.03 17.8009 170.899 18.7026 170.231 18.817L167.596 19.2688C167.298 19.3199 167.066 19.5575 167.022 19.8572L166.638 22.5029C166.54 23.1731 165.642 23.327 165.327 22.7276L164.083 20.3611C163.942 20.093 163.645 19.9461 163.346 19.9973L160.711 20.4491C160.044 20.5635 159.62 19.757 160.093 19.2721L161.959 17.3577C162.17 17.1409 162.218 16.8126 162.077 16.5445L160.833 14.178C160.518 13.5785 161.154 12.9261 161.761 13.2259L164.159 14.4093C164.43 14.5433 164.757 14.4872 164.969 14.2704L166.835 12.3561Z" fill="#FFDA79"/>
<path d="M223.142 96.9821C223.363 96.7547 223.746 96.9438 223.701 97.258L223.52 98.4982C223.5 98.6387 223.572 98.7764 223.699 98.8392L224.823 99.394C225.108 99.5345 225.046 99.9572 224.734 100.011L223.498 100.223C223.358 100.247 223.25 100.358 223.229 100.498L223.049 101.739C223.003 102.053 222.582 102.125 222.435 101.844L221.852 100.735C221.786 100.609 221.646 100.54 221.506 100.564L220.271 100.776C219.958 100.83 219.759 100.451 219.981 100.224L220.856 99.3267C220.955 99.2251 220.977 99.0712 220.911 98.9455L220.328 97.8361C220.18 97.5551 220.478 97.2493 220.763 97.3898L221.887 97.9446C222.014 98.0074 222.168 97.9811 222.267 97.8795L223.142 96.9821Z" fill="#FFDA79"/>
<path d="M181.142 216.982C181.363 216.755 181.746 216.944 181.701 217.258L181.52 218.498C181.5 218.639 181.572 218.776 181.699 218.839L182.823 219.394C183.108 219.535 183.046 219.957 182.734 220.011L181.498 220.223C181.358 220.247 181.25 220.358 181.229 220.498L181.049 221.739C181.003 222.053 180.582 222.125 180.435 221.844L179.852 220.735C179.786 220.609 179.646 220.54 179.506 220.564L178.271 220.776C177.958 220.83 177.759 220.451 177.981 220.224L178.856 219.327C178.955 219.225 178.977 219.071 178.911 218.946L178.328 217.836C178.18 217.555 178.478 217.249 178.763 217.39L179.887 217.945C180.014 218.007 180.168 217.981 180.267 217.879L181.142 216.982Z" fill="#FFDA79"/>
<path d="M175.142 55.9821C175.363 55.7547 175.746 55.9438 175.701 56.258L175.52 57.4982C175.5 57.6387 175.572 57.7764 175.699 57.8392L176.823 58.394C177.108 58.5345 177.046 58.9572 176.734 59.0108L175.498 59.2226C175.358 59.2466 175.25 59.358 175.229 59.4985L175.049 60.7387C175.003 61.0529 174.582 61.125 174.435 60.844L173.852 59.7347C173.786 59.609 173.646 59.5402 173.506 59.5641L172.271 59.7759C171.958 59.8296 171.759 59.4515 171.981 59.2242L172.856 58.3267C172.955 58.2251 172.977 58.0712 172.911 57.9455L172.328 56.8361C172.18 56.5551 172.478 56.2493 172.763 56.3898L173.887 56.9446C174.014 57.0074 174.168 56.9811 174.267 56.8795L175.142 55.9821Z" fill="#FFDA79"/>
<path d="M184.142 48.9821C184.363 48.7547 184.746 48.9438 184.701 49.258L184.52 50.4982C184.5 50.6387 184.572 50.7764 184.699 50.8392L185.823 51.394C186.108 51.5345 186.046 51.9572 185.734 52.0108L184.498 52.2226C184.358 52.2466 184.25 52.358 184.229 52.4985L184.049 53.7387C184.003 54.0529 183.582 54.125 183.435 53.844L182.852 52.7347C182.786 52.609 182.646 52.5402 182.506 52.5641L181.271 52.7759C180.958 52.8296 180.759 52.4515 180.981 52.2242L181.856 51.3267C181.955 51.2251 181.977 51.0712 181.911 50.9455L181.328 49.8361C181.18 49.5551 181.478 49.2493 181.763 49.3898L182.887 49.9446C183.014 50.0074 183.168 49.9811 183.267 49.8795L184.142 48.9821Z" fill="#FFDA79"/>
<path d="M63.1416 41.9821C63.3632 41.7547 63.7462 41.9438 63.7005 42.258L63.5202 43.4982C63.4998 43.6387 63.5721 43.7764 63.6994 43.8392L64.8233 44.394C65.1079 44.5345 65.0465 44.9572 64.7336 45.0108L63.4983 45.2226C63.3584 45.2466 63.2498 45.358 63.2294 45.4985L63.0491 46.7387C63.0034 47.0529 62.5824 47.125 62.4347 46.844L61.8516 45.7347C61.7855 45.609 61.6461 45.5402 61.5061 45.5641L60.2708 45.7759C59.9579 45.8296 59.7592 45.4515 59.9808 45.2242L60.8557 44.3267C60.9548 44.2251 60.9772 44.0712 60.9111 43.9455L60.328 42.8361C60.1803 42.5551 60.4785 42.2493 60.7631 42.3898L61.887 42.9446C62.0143 43.0074 62.1676 42.9811 62.2667 42.8795L63.1416 41.9821Z" fill="#FFDA79"/>
<path d="M235.44 74.9476C235.838 74.5393 236.526 74.8789 236.444 75.4432L236.12 77.6712C236.083 77.9235 236.213 78.1708 236.442 78.2837L238.461 79.2802C238.972 79.5327 238.862 80.2919 238.3 80.3883L236.081 80.7687C235.829 80.8118 235.634 81.0118 235.598 81.2642L235.274 83.4921C235.192 84.0565 234.435 84.1861 234.17 83.6813L233.123 81.6885C233.004 81.4628 232.753 81.3391 232.502 81.3822L230.283 81.7626C229.721 81.859 229.364 81.1798 229.762 80.7715L231.334 79.1594C231.512 78.9768 231.552 78.7004 231.433 78.4746L230.386 76.4818C230.12 75.977 230.656 75.4276 231.167 75.6801L233.186 76.6766C233.415 76.7895 233.69 76.7423 233.868 76.5597L235.44 74.9476Z" fill="#FFDA79"/>
<path d="M79.4398 208.948C79.8378 208.539 80.5259 208.879 80.4438 209.443L80.1199 211.671C80.0832 211.924 80.2132 212.171 80.4419 212.284L82.4607 213.28C82.972 213.533 82.8616 214.292 82.2996 214.388L80.0806 214.769C79.8292 214.812 79.6342 215.012 79.5975 215.264L79.2736 217.492C79.1916 218.056 78.4353 218.186 78.17 217.681L77.1225 215.689C77.0039 215.463 76.7533 215.339 76.502 215.382L74.283 215.763C73.7209 215.859 73.3639 215.18 73.762 214.771L75.3336 213.159C75.5116 212.977 75.5518 212.7 75.4332 212.475L74.3857 210.482C74.1204 209.977 74.656 209.428 75.1673 209.68L77.1861 210.677C77.4148 210.789 77.6902 210.742 77.8682 210.56L79.4398 208.948Z" fill="#FFDA79"/>
<path d="M56.1416 214.982C56.3632 214.755 56.7462 214.944 56.7005 215.258L56.5202 216.498C56.4998 216.639 56.5721 216.776 56.6994 216.839L57.8233 217.394C58.1079 217.535 58.0465 217.957 57.7336 218.011L56.4983 218.223C56.3584 218.247 56.2498 218.358 56.2294 218.498L56.0491 219.739C56.0034 220.053 55.5824 220.125 55.4347 219.844L54.8516 218.735C54.7855 218.609 54.6461 218.54 54.5061 218.564L53.2708 218.776C52.9579 218.83 52.7592 218.451 52.9808 218.224L53.8557 217.327C53.9548 217.225 53.9772 217.071 53.9111 216.946L53.328 215.836C53.1803 215.555 53.4785 215.249 53.7631 215.39L54.887 215.945C55.0143 216.007 55.1676 215.981 55.2667 215.879L56.1416 214.982Z" fill="#FFDA79"/>
<path d="M27.1416 66.9821C27.3632 66.7547 27.7462 66.9438 27.7005 67.258L27.5202 68.4982C27.4998 68.6387 27.5721 68.7764 27.6994 68.8392L28.8233 69.394C29.1079 69.5345 29.0465 69.9572 28.7336 70.0108L27.4983 70.2226C27.3584 70.2466 27.2498 70.358 27.2294 70.4985L27.0491 71.7387C27.0034 72.0529 26.5824 72.125 26.4347 71.844L25.8516 70.7347C25.7855 70.609 25.6461 70.5402 25.5061 70.5641L24.2708 70.7759C23.9579 70.8296 23.7592 70.4515 23.9808 70.2242L24.8557 69.3267C24.9548 69.2251 24.9772 69.0712 24.9111 68.9455L24.328 67.8361C24.1803 67.5551 24.4785 67.2493 24.7631 67.3898L25.887 67.9446C26.0143 68.0074 26.1676 67.9811 26.2667 67.8795L27.1416 66.9821Z" fill="#FFDA79"/>
<path fillRule="evenodd" clipRule="evenodd" d="M184.043 209.324C183.574 209.283 183.1 209.165 182.641 208.965L153.509 196.238C144.812 192.439 144.06 184.088 147.676 175.771C151.292 167.455 157.907 162.322 166.604 166.121L185.691 174.459L196.992 159.3C198.51 157.263 201.047 156.581 202.658 157.778L220.157 170.776C221.768 171.973 221.843 174.594 220.325 176.631L199.98 203.924C195.23 210.295 189.428 211.423 184.043 209.324Z" fill="#E8E8E8"/>
<path fillRule="evenodd" clipRule="evenodd" d="M41.1746 187.456C39.897 189.004 40.4473 191.572 42.4037 193.193L68.6168 214.912C75.2114 220.376 81.5446 219.623 86.432 215.547L109.904 205.687C118.654 202.011 119.502 193.681 115.975 185.326C112.448 176.971 105.884 171.755 97.1337 175.431L76.821 183.964L60.9098 170.78C58.9534 169.159 56.3318 169.1 55.0542 170.647L41.1746 187.456Z" fill="#E8E8E8"/>
<path d="M91.5817 203.511C90.4334 187.134 93.151 170.451 106.834 169.492L144.823 166.828C158.506 165.869 164.897 176.02 166.046 192.396L166.734 240.655C166.741 243.636 164.492 246.276 161.266 247.072C140.994 252.079 122.885 253.349 102.112 251.22C98.8435 250.885 95.0004 248.629 94.5411 245.717L91.5817 203.511Z" fill="#FAFAFA"/>
<path d="M109.198 158.728C108.763 152.518 112.49 147.198 117.522 146.845L130.28 145.951C135.313 145.598 139.745 150.346 140.181 156.556L140.969 167.799C141.405 174.009 137.678 179.329 132.645 179.682L119.887 180.576C114.855 180.929 110.422 176.181 109.986 169.972L109.198 158.728Z" fill="#FFAB48"/>
<path d="M181.848 141.152C181.084 151.346 171.87 158.966 161.266 158.172C150.663 157.378 142.686 148.47 143.45 138.276C144.214 128.081 153.428 120.461 164.031 121.255C174.635 122.05 182.611 130.957 181.848 141.152Z" fill="#FF9C27"/>
<path d="M112.254 130.136C111.491 140.33 102.276 147.951 91.673 147.156C81.0698 146.362 73.0932 137.454 73.8567 127.26C74.6203 117.066 83.8349 109.446 94.4381 110.24C105.041 111.034 113.018 119.942 112.254 130.136Z" fill="#ED8000"/>
<path d="M173.911 130.134C172.15 153.654 149.087 171.101 122.398 169.102C95.7101 167.103 73.1816 142.983 85.4465 126.976C78.8102 101.415 102.09 81.9274 128.778 83.9264C155.466 85.9253 175.673 106.613 173.911 130.134Z" fill="#FFBA68"/>
<path d="M174.232 130.241C172.461 153.879 148.89 171.383 121.583 169.337C94.2758 167.292 71.1947 143.019 83.7209 126.947C76.8968 101.247 100.687 81.6924 127.994 83.7377C155.301 85.7829 176.002 106.603 174.232 130.241Z" fill="#FFBA68"/>
<mask id="mask0_3_7174" style="mask-type:alpha" maskUnits="userSpaceOnUse" x="80" y="83" width="95" height="87">
<path d="M174.232 130.241C172.461 153.879 148.89 171.383 121.583 169.337C94.2758 167.292 71.1947 143.019 83.7209 126.947C76.8968 101.247 100.687 81.6924 127.994 83.7377C155.301 85.7829 176.002 106.603 174.232 130.241Z" fill="#FFBA68"/>
</mask>
<g mask="url(#mask0_3_7174)">
<path fillRule="evenodd" clipRule="evenodd" d="M133.213 143.294C126.624 146.977 119.055 148.656 111.514 148.108C110.704 148.049 110.142 147.425 110.259 146.713C110.376 146.002 111.128 145.473 111.937 145.532C118.815 146.031 125.716 144.5 131.726 141.142C132.433 140.747 133.34 140.908 133.751 141.502C134.162 142.097 133.921 142.899 133.213 143.294Z" fill="#A75A00"/>
<path d="M171.267 152.48C170.522 162.426 161.474 169.856 151.057 169.076C140.64 168.295 132.799 159.6 133.544 149.655C134.289 139.709 143.338 132.279 153.755 133.059C164.172 133.839 172.012 142.534 171.267 152.48Z" fill="#FF9A24"/>
<path d="M100.457 144.275C99.7124 154.221 90.6639 161.651 80.247 160.87C69.83 160.09 61.9893 151.395 62.7342 141.45C63.4791 131.504 72.5276 124.074 82.9446 124.854C93.3615 125.634 101.202 134.329 100.457 144.275Z" fill="#FF9A24"/>
</g>
<path d="M117.313 138.374C117.233 139.444 116.266 140.243 115.154 140.159C114.042 140.076 113.206 139.142 113.286 138.073C113.366 137.003 114.332 136.204 115.444 136.288C116.556 136.371 117.393 137.305 117.313 138.374Z" fill="black"/>
<path d="M109.99 129.04C109.838 131.075 107.911 132.59 105.687 132.423C103.463 132.256 101.783 130.472 101.936 128.436C102.088 126.401 104.015 124.887 106.239 125.053C108.463 125.22 110.143 127.005 109.99 129.04Z" fill="black"/>
<path fillRule="evenodd" clipRule="evenodd" d="M108.417 123.626C108.761 124.328 108.422 125.145 107.66 125.451C107.246 125.617 106.61 125.973 106.142 126.442C105.677 126.908 105.528 127.319 105.596 127.692C105.734 128.449 105.178 129.157 104.354 129.274C103.529 129.39 102.748 128.872 102.61 128.115C102.331 126.59 103.088 125.365 103.896 124.556C104.701 123.75 105.706 123.193 106.414 122.909C107.176 122.603 108.073 122.924 108.417 123.626Z" fill="black"/>
<path d="M135.908 132.915C135.755 134.95 133.829 136.465 131.605 136.298C129.38 136.131 127.701 134.347 127.853 132.311C128.006 130.276 129.932 128.762 132.156 128.928C134.381 129.095 136.06 130.88 135.908 132.915Z" fill="black"/>
<path fillRule="evenodd" clipRule="evenodd" d="M134.334 127.501C134.678 128.203 134.34 129.02 133.578 129.326C133.163 129.492 132.528 129.848 132.06 130.317C131.594 130.783 131.445 131.194 131.513 131.567C131.652 132.324 131.096 133.032 130.271 133.149C129.446 133.265 128.666 132.747 128.528 131.99C128.249 130.465 129.005 129.24 129.813 128.431C130.618 127.625 131.623 127.068 132.332 126.784C133.094 126.478 133.99 126.799 134.334 127.501Z" fill="black"/>
<path fillRule="evenodd" clipRule="evenodd" d="M105.292 118.256C103.83 118.34 102.599 118.961 101.958 119.47C101.358 119.946 100.467 119.861 99.9678 119.281C99.4689 118.7 99.5508 117.844 100.151 117.368C101.182 116.55 102.965 115.664 105.106 115.542C107.311 115.416 109.804 116.108 112.109 118.322C112.663 118.854 112.667 119.715 112.117 120.244C111.568 120.774 110.673 120.771 110.119 120.239C108.39 118.579 106.69 118.176 105.292 118.256Z" fill="#905A09"/>
<path fillRule="evenodd" clipRule="evenodd" d="M134.117 122.636C132.652 122.645 131.392 123.202 130.725 123.678C130.102 124.123 129.216 123.993 128.748 123.388C128.279 122.782 128.404 121.931 129.028 121.486C130.099 120.722 131.925 119.929 134.069 119.916C136.278 119.902 138.733 120.72 140.922 123.049C141.448 123.609 141.408 124.468 140.832 124.969C140.256 125.47 139.363 125.422 138.836 124.862C137.195 123.116 135.518 122.627 134.117 122.636Z" fill="#905A09"/>
<path d="M112.741 72.6362C126.104 79.6561 137.48 65.1626 160.45 86.535C167.369 86.5225 158.648 69.7619 171.056 81.1817C180.165 89.5651 171.098 90.6029 166.954 89.242C182.518 102.037 184.64 141.03 164.64 135.435C140.381 128.648 150.081 95.2581 142.801 102.32C135.521 109.381 88.3578 127.497 78.357 122.238C71.3172 118.536 72.4824 108.566 80.1808 106.633C79.3898 105.516 74.2926 105.701 73.6476 98.5966C73.0026 91.4917 90.8202 81.3627 98.1327 79.2844C98.9939 71.9154 98.61 65.2124 112.741 72.6362Z" fill="black"/>
<path d="M95.8229 168.976C95.9176 165.263 99.1213 162.398 102.822 162.716L127.031 164.8L152.067 163.96C155.746 163.836 158.771 166.836 158.677 170.517C158.603 173.399 156.611 175.877 153.811 176.566L133.714 181.515C128.483 182.803 122.997 182.608 117.871 180.953L100.288 175.276C97.5674 174.398 95.75 171.834 95.8229 168.976Z" fill="#D7D7D7"/>
<path d="M104.696 198.037C104.915 192.519 109.566 188.222 115.084 188.441L143.062 189.551C148.581 189.77 152.877 194.421 152.658 199.94L151.945 217.926C151.726 223.444 147.075 227.74 141.556 227.521L113.578 226.411C108.06 226.193 103.763 221.541 103.982 216.023L104.696 198.037Z" fill="#D7D7D7"/>
<path d="M110.354 206.768C110.453 204.285 112.546 202.351 115.029 202.45L123.023 202.767C125.506 202.865 127.439 204.958 127.341 207.442C127.242 209.925 125.149 211.858 122.666 211.76L114.672 211.443C112.189 211.344 110.256 209.251 110.354 206.768Z" fill="#BBBBBB"/>
<path d="M110.354 206.768C110.453 204.285 112.546 202.351 115.029 202.45C117.513 202.548 119.446 204.641 119.347 207.125C119.249 209.608 117.156 211.541 114.672 211.443C112.189 211.344 110.256 209.251 110.354 206.768Z" fill="#7E7E7E"/>
<path fillRule="evenodd" clipRule="evenodd" d="M136.729 189.852C137.26 189.698 137.814 190.003 137.968 190.534C138.043 190.793 138.071 191.147 138.086 191.472C138.103 191.832 138.109 192.28 138.106 192.792C138.101 193.817 138.06 195.139 137.999 196.605C137.877 199.541 137.668 203.092 137.476 206.087C137.345 208.13 136.428 210.036 134.928 211.421L132.869 213.323C131.7 214.402 131.008 215.902 130.945 217.492L130.624 225.586C130.602 226.138 130.137 226.568 129.585 226.546C129.033 226.524 128.604 226.059 128.626 225.507L128.947 217.413C129.031 215.293 129.954 213.293 131.512 211.853L133.571 209.952C134.697 208.912 135.382 207.484 135.48 205.959C135.672 202.969 135.879 199.435 136.001 196.522C136.062 195.064 136.101 193.77 136.106 192.781C136.109 192.285 136.103 191.876 136.088 191.566C136.081 191.411 136.072 191.29 136.062 191.199C136.053 191.118 136.045 191.086 136.046 191.085C136.046 191.085 136.046 191.087 136.047 191.09C135.893 190.56 136.199 190.005 136.729 189.852Z" fill="#B1B1B1"/>
<ellipse cx="125.463" cy="126.256" rx="52.1727" ry="40.2173" transform="rotate(2.19926 125.463 126.256)" fill="white" fill-opacity="0.4"/>
<path fillRule="evenodd" clipRule="evenodd" d="M115.893 100.851C116.024 102.225 115.017 103.446 113.643 103.578C109.599 103.965 104.687 105.731 100.401 108.062C98.2767 109.218 96.37 110.478 94.8549 111.714C93.3057 112.977 92.3074 114.101 91.8327 114.95C91.1587 116.155 89.6354 116.585 88.4304 115.911C87.2254 115.237 86.795 113.714 87.4691 112.509C88.386 110.87 89.9311 109.278 91.6945 107.839C93.4921 106.373 95.6673 104.945 98.0119 103.67C102.664 101.139 108.237 99.0727 113.166 98.6005C114.54 98.4688 115.761 99.4762 115.893 100.851Z" fill="white"/>
<rect x="79.4009" y="145.193" width="16.1986" height="38" rx="8.09931" transform="rotate(177.576 79.4009 145.193)" fill="#E5E5E5"/>
<path fillRule="evenodd" clipRule="evenodd" d="M127.549 174.268C161.406 175.568 189.814 151.581 191 120.692C192.187 89.8029 165.702 63.7082 131.844 62.408C97.9872 61.1077 69.5789 85.0944 68.3926 115.984C67.2064 146.873 93.6915 172.967 127.549 174.268ZM89.9505 105.127C106.429 93.9583 133.581 86.3435 163.925 108.353C171.177 113.614 174.559 122.529 174.215 131.482C173.848 141.023 169.277 150.132 160.997 154.888C143.285 165.062 118.394 172.625 90.7186 153.125C82.4839 147.323 78.8248 137.205 79.2113 127.139C79.5429 118.504 82.7978 109.975 89.9505 105.127Z" fill="#FAFAFA"/>
<path d="M82.7438 118.709C83.0104 117.638 84.0955 116.985 85.1674 117.251L86.1379 117.493C87.2098 117.759 87.8626 118.844 87.596 119.916L87.3546 120.887C87.088 121.959 86.0029 122.611 84.931 122.345L83.9606 122.103C82.8887 121.837 82.2359 120.752 82.5025 119.68L82.7438 118.709Z" fill="white"/>
<path fillRule="evenodd" clipRule="evenodd" d="M192.588 87.9328C190.452 87.3586 188.816 85.4837 188.653 83.1541C188.447 80.2158 190.662 77.6668 193.6 77.4608C196.539 77.2547 199.087 79.4697 199.294 82.408C199.494 85.267 197.402 87.7575 194.582 88.0796L192.65 114.094L190.655 113.946L192.588 87.9328Z" fill="#ACACAC"/>
<rect x="169.156" y="106.703" width="27" height="43" rx="13.5" transform="rotate(2.19926 169.156 106.703)" fill="#E5E5E5"/>
<rect x="174.232" y="106.89" width="22" height="38" rx="11" transform="rotate(2.19926 174.232 106.89)" fill="#FAFAFA"/>
<path d="M20.0076 122.252C31.0277 122.455 36.6856 136.268 29.095 137.663C21.5044 139.058 34.9266 118.025 43.1514 137.308" stroke="#5991FF" strokeWidth="4" strokeLinecap="round"/>
<path fillRule="evenodd" clipRule="evenodd" d="M43.6604 123.693C42.7223 123.11 42.4351 121.877 43.019 120.939L44.2012 119.041C45.0646 117.654 44.6376 115.831 43.2483 114.972C40.3156 113.159 39.1566 109.472 40.5248 106.307L41.5949 103.833C42.0333 102.819 43.2109 102.352 44.2252 102.789C45.2395 103.227 45.7065 104.404 45.2682 105.417L44.1981 107.892C43.617 109.236 44.1092 110.802 45.3546 111.572C48.6261 113.594 49.6316 117.888 47.5985 121.152L46.4162 123.051C45.8323 123.989 44.5985 124.276 43.6604 123.693Z" fill="#F97F7F"/>
<rect x="14.1226" y="92.6113" width="5.0675" height="9.41108" rx="2.53375" transform="rotate(25.979 14.1226 92.6113)" fill="#5991FF"/>
<rect x="52.1631" y="129.745" width="3.05013" height="5.66452" rx="1.52506" transform="rotate(101.402 52.1631 129.745)" fill="#FFC266"/>
<rect x="37.1201" y="94.6113" width="3.05013" height="5.66452" rx="1.52506" transform="rotate(10.8393 37.1201 94.6113)" fill="#FFC266"/>
<rect x="9" y="114.773" width="3.05013" height="5.66452" rx="1.52506" transform="rotate(-44.5764 9 114.773)" fill="#F97F7F"/>
<path fillRule="evenodd" clipRule="evenodd" d="M26.5849 175.098C26.5164 177.482 28.1841 179.513 30.4423 179.977C29.6231 180.817 29.1048 181.954 29.0685 183.219C29.006 185.394 30.3895 187.276 32.3482 187.941C31.7372 188.725 31.3616 189.704 31.3308 190.774C31.2541 193.446 33.3579 195.674 36.0298 195.751L50.6442 196.171C51.2307 196.188 51.7958 196.099 52.3215 195.923C61.598 195.915 69.2458 188.529 69.5139 179.194C69.6358 174.948 68.623 171.168 66.5426 168.232C63.1601 163.459 58.3704 159.066 57.6009 153.267L57.4385 152.044Lnan nanL57.4385 152.044C56.6787 149.143 55.3934 145.75 52.4218 145.35C51.2513 145.193 50.1116 145.559 49.2028 146.677C47.2481 149.082 48.1295 154.19 49.2028 157.41C50.2761 160.63 41.205 161.035 41.205 161.035L32.8065 160.794C30.0933 160.716 27.8306 162.852 27.7527 165.565C27.6879 167.821 29.1533 169.765 31.2083 170.402C28.6961 170.511 26.6582 172.545 26.5849 175.098Z" fill="#FAFAFA"/>
<path fillRule="evenodd" clipRule="evenodd" d="M30.8874 170.955C30.898 170.585 31.2066 170.293 31.5766 170.304L43.0694 170.634C43.6661 170.651 44.3736 170.761 44.9737 171.191C45.6218 171.656 46.3038 172.386 46.6329 173.391C46.9682 174.415 46.9107 175.646 46.2075 177.04C46.0407 177.37 45.6376 177.503 45.3072 177.336C44.9767 177.169 44.844 176.766 45.0108 176.436C45.5748 175.318 45.5705 174.454 45.359 173.808C45.1413 173.143 44.6766 172.628 44.1921 172.28C43.91 172.078 43.5197 171.988 43.031 171.974L31.5381 171.644C31.1681 171.633 30.8768 171.325 30.8874 170.955Z" fill="#E5E5E5"/>
<path fillRule="evenodd" clipRule="evenodd" d="M34.8602 161.747C34.8708 161.377 35.1794 161.086 35.5493 161.096L45.8793 161.393C46.5246 161.411 47.31 161.538 47.9346 162.064C48.5141 162.552 49.0919 163.284 49.3563 164.264C49.6236 165.254 49.5536 166.436 48.9339 167.778C48.7788 168.114 48.3806 168.261 48.0445 168.106C47.7085 167.951 47.5618 167.553 47.717 167.217C48.2212 166.124 48.2381 165.265 48.0622 164.613C47.8834 163.951 47.4881 163.44 47.0714 163.089C46.7921 162.854 46.3765 162.748 45.8408 162.733L35.5109 162.436C35.1409 162.425 34.8496 162.117 34.8602 161.747Z" fill="#E5E5E5"/>
<path fillRule="evenodd" clipRule="evenodd" d="M34.156 187.847C34.1666 187.477 34.4751 187.186 34.8451 187.197L44.4083 187.471C45.1319 187.492 45.9279 187.641 46.6158 188.097C47.3717 188.599 48.128 189.319 48.4706 190.3C48.8249 191.315 48.6939 192.484 47.9088 193.765C47.7155 194.081 47.3029 194.18 46.9872 193.986C46.6716 193.793 46.5725 193.38 46.7659 193.065C47.385 192.054 47.4013 191.304 47.2051 190.742C46.9973 190.147 46.5054 189.633 45.8746 189.214C45.4721 188.947 44.9544 188.828 44.3698 188.811L34.8066 188.536C34.4366 188.526 34.1453 188.217 34.156 187.847Z" fill="#E5E5E5"/>
<path fillRule="evenodd" clipRule="evenodd" d="M49.2656 166.338C49.5534 166.105 49.9754 166.15 50.2082 166.438L53.9293 171.037L53.9222 171.285C53.8818 172.692 54.188 174.867 55.2239 176.765C56.2454 178.637 57.9646 180.228 60.8041 180.597C61.1712 180.645 61.43 180.981 61.3823 181.348C61.3345 181.715 60.9983 181.974 60.6313 181.926C57.2919 181.492 55.2353 179.584 54.0473 177.407C52.9341 175.368 52.5736 173.084 52.5784 171.498L49.1661 167.281C48.9333 166.993 48.9779 166.571 49.2656 166.338Z" fill="#E5E5E5"/>
<path fillRule="evenodd" clipRule="evenodd" d="M31.2831 179.551C31.2938 179.181 31.6023 178.889 31.9723 178.9L44.285 179.254C44.9345 179.272 45.6607 179.405 46.2879 179.83C46.9985 180.312 47.7858 181.055 48.1367 182.032C48.5089 183.069 48.3466 184.247 47.3705 185.434C47.1354 185.72 46.713 185.761 46.4272 185.526C46.1413 185.29 46.1002 184.868 46.3353 184.582C47.0485 183.715 47.0691 183.025 46.8752 182.485C46.66 181.886 46.1321 181.344 45.5356 180.94C45.2 180.712 44.7597 180.608 44.2465 180.594L31.9338 180.24C31.5638 180.229 31.2725 179.921 31.2831 179.551Z" fill="#E5E5E5"/>
<path fillRule="evenodd" clipRule="evenodd" d="M233.291 143.216C234.898 145.082 234.695 147.906 232.838 149.523L230.457 151.597C232.094 151.083 233.95 151.551 235.144 152.937C236.751 154.802 236.548 157.626 234.691 159.243L229.692 163.598C230.056 163.827 230.393 164.115 230.689 164.458C232.296 166.324 232.093 169.148 230.236 170.765L220.08 179.611C219.673 179.966 219.219 180.233 218.743 180.415C212.137 185.834 202.403 185.024 196.788 178.505C191.918 172.85 191.718 164.723 195.848 158.881L196.534 147.421C196.705 144.563 199.104 142.714 201.892 143.291C204.435 143.817 206.423 146.178 206.625 148.757L217.449 139.329C219.334 137.687 222.186 137.891 223.817 139.786C225.164 141.349 225.259 143.576 224.191 145.229L227.019 142.766C228.876 141.149 231.684 141.351 233.291 143.216Z" fill="#FAFAFA"/>
<path fillRule="evenodd" clipRule="evenodd" d="M226.962 163.98C226.739 163.721 226.35 163.693 226.093 163.917L219.443 169.709C218.939 170.147 218.459 170.719 218.235 171.449C217.988 172.25 217.868 173.208 218.194 174.11C218.532 175.043 219.305 175.803 220.609 176.261C220.93 176.373 221.282 176.203 221.394 175.88C221.506 175.557 221.337 175.204 221.016 175.091C219.987 174.73 219.539 174.202 219.352 173.686C219.154 173.138 219.206 172.483 219.412 171.814C219.543 171.387 219.842 170.999 220.249 170.645L226.899 164.854C227.157 164.629 227.185 164.238 226.962 163.98Z" fill="#E5E5E5"/>
<path fillRule="evenodd" clipRule="evenodd" d="M205.654 153.428C205.314 153.43 205.039 153.708 205.041 154.05L205.065 159.512L205.214 159.685C206.06 160.668 207.105 162.402 207.47 164.364C207.831 166.298 207.532 168.44 205.726 170.364C205.493 170.613 205.504 171.004 205.751 171.239C205.998 171.473 206.388 171.462 206.621 171.213C208.744 168.951 209.099 166.385 208.68 164.135C208.288 162.026 207.218 160.184 206.294 159.053L206.272 154.044C206.27 153.702 205.993 153.426 205.654 153.428Z" fill="#E5E5E5"/>
<path fillRule="evenodd" clipRule="evenodd" d="M227.197 153.592C227.391 153.815 227.367 154.152 227.144 154.346L219.622 160.881C219.399 161.074 219.062 161.051 218.869 160.828C218.676 160.606 218.699 160.268 218.922 160.075L226.444 153.54C226.667 153.346 227.004 153.37 227.197 153.592Z" fill="#E5E5E5"/>
<path fillRule="evenodd" clipRule="evenodd" d="M221.886 147.782C222.08 148.004 222.056 148.342 221.833 148.535L212.699 156.471C212.476 156.664 212.139 156.641 211.946 156.418C211.753 156.196 211.776 155.858 211.999 155.665L221.133 147.729C221.356 147.536 221.693 147.559 221.886 147.782Z" fill="#E5E5E5"/>
<path fillRule="evenodd" clipRule="evenodd" d="M214.828 158.116C212.173 156.262 209.24 155.237 207.369 154.864C207.08 154.807 206.893 154.525 206.95 154.236C207.008 153.947 207.289 153.759 207.578 153.817C209.575 154.215 212.648 155.292 215.439 157.24C218.234 159.19 220.786 162.043 221.639 165.998C221.701 166.287 221.518 166.571 221.23 166.633C220.942 166.695 220.658 166.512 220.596 166.224C219.817 162.613 217.481 159.967 214.828 158.116Z" fill="#E5E5E5"/>
</svg>
