<svg width="190" height="257" viewBox="0 0 190 257" fill="none" xmlns="http://www.w3.org/2000/svg">
<path d="M71.3987 216.047L72.6773 212.464C73.5238 210.092 76.1317 208.862 78.5027 209.715L92.7879 214.859C95.1634 215.715 96.3994 218.337 95.5461 220.712L87.6161 242.783C86.7657 245.149 84.1613 246.375 81.7939 245.522L41.6081 231.052C39.4089 230.26 38.0863 227.884 39.1479 225.804C43.7798 216.729 55.3442 215.754 64.6453 218.938C67.3214 219.853 70.4486 218.71 71.3987 216.047Z" fill="#333333"/>
<path d="M102.645 229.133L103.256 225.378C103.661 222.892 106.004 221.211 108.49 221.623L123.469 224.106C125.96 224.519 127.649 226.876 127.238 229.365L123.419 252.504C123.009 254.985 120.669 256.661 118.186 256.249L76.0496 249.265C73.7436 248.883 72.0141 246.784 72.6831 244.547C75.6021 234.786 86.801 231.741 96.5237 233.194C99.3211 233.612 102.191 231.923 102.645 229.133Z" fill="#333333"/>
<path d="M88.2668 150.406C88.6323 148.739 90.3117 147.713 91.9612 148.147L111.601 153.32C113.227 153.749 114.183 155.429 113.721 157.046L94.7599 223.405C94.3114 224.974 92.69 225.897 91.1113 225.482L75.6319 221.404C74.0765 220.995 73.121 219.431 73.4657 217.86L88.2668 150.406Z" fill="#333333"/>
<path d="M136.654 157.057C136.9 155.369 135.692 153.816 133.996 153.639L113.795 151.538C112.123 151.364 110.634 152.598 110.495 154.274L104.783 223.052C104.648 224.679 105.838 226.115 107.462 226.284L123.384 227.94C124.983 228.107 126.43 226.982 126.663 225.39L136.654 157.057Z" fill="#333333"/>
<path d="M95.4511 153.43C95.4957 151.397 97.0512 149.797 98.8061 149.979L118.712 152.05C120.411 152.226 121.595 154.006 121.311 155.957L116.829 186.749C116.564 188.574 115.105 189.879 113.515 189.714L97.4063 188.039C95.8705 187.879 94.727 186.397 94.7661 184.617L95.4511 153.43Z" fill="#333333"/>
<path d="M52.954 113.038C51.3892 111.84 49.4987 111.665 48.7314 112.648L40.3964 123.327C39.6292 124.31 40.2758 126.078 41.8406 127.277L62.8076 143.337C69.067 148.132 74.206 146.975 77.2748 143.043C80.3437 139.111 80.1804 133.893 73.921 129.099L52.954 113.038Z" fill="#FFAE4E"/>
<path d="M96.0325 119.751C97.223 118.18 97.3879 116.289 96.401 115.527L85.6787 107.248C84.6918 106.486 82.9267 107.142 81.7362 108.713L65.7859 129.763C61.0241 136.048 62.2076 141.181 66.1554 144.229C70.1033 147.277 75.3204 147.086 80.0821 140.802L96.0325 119.751Z" fill="#FFAE4E"/>
<path fill-rule="evenodd" clip-rule="evenodd" d="M39.0889 91.6058C37.3997 92.8284 37.0304 95.1801 38.2641 96.8585L40.6281 100.075C39.3483 99.0941 37.5231 99.0218 36.1526 100.014C34.6683 101.088 34.2189 103.048 35.0023 104.632C34.1045 104.529 33.1671 104.747 32.3797 105.317C31.0251 106.297 30.5324 108.015 31.0522 109.512C30.2862 109.509 29.5127 109.74 28.8467 110.222C27.1832 111.426 26.8196 113.742 28.0344 115.395L34.6793 124.435C34.946 124.798 35.2665 125.098 35.622 125.334C40.007 130.944 48.1165 132.115 53.9282 127.908C58.97 124.259 60.6565 117.74 58.3749 112.253L59.9626 102.88C60.3586 100.542 58.7439 98.6002 56.356 98.5431C54.1791 98.4909 52.1112 100.023 51.4627 102.065L44.3812 92.431C43.1475 90.7526 40.7781 90.3832 39.0889 91.6058Z" fill="#FFBA68"/>
<path fill-rule="evenodd" clip-rule="evenodd" d="M40.6953 100.663C40.9343 100.49 41.2696 100.542 41.4442 100.779L46.6557 107.869C46.9366 108.252 47.2168 108.751 47.2343 109.34C47.2526 109.952 47.1246 110.705 46.6633 111.372C46.1934 112.053 45.4146 112.59 44.2385 112.815C43.948 112.871 43.6667 112.683 43.6101 112.394C43.5536 112.106 43.7433 111.827 44.0338 111.771C44.9696 111.591 45.4879 111.191 45.7792 110.77C46.0792 110.336 46.1765 109.822 46.163 109.37C46.1548 109.098 46.0213 108.81 45.7901 108.496L40.5786 101.406C40.404 101.168 40.4563 100.836 40.6953 100.663Z" fill="#FF9C27"/>
<path fill-rule="evenodd" clip-rule="evenodd" d="M31.9513 110.546C32.1904 110.373 32.5256 110.426 32.7002 110.663L37.0314 116.555C37.3722 117.019 37.6707 117.593 37.7154 118.249C37.7624 118.941 37.6756 119.733 37.2344 120.398C36.7782 121.085 36.0014 121.549 34.8547 121.673C34.5605 121.705 34.2957 121.494 34.2633 121.202C34.2308 120.91 34.443 120.647 34.7372 120.615C35.634 120.518 36.0925 120.183 36.3392 119.812C36.601 119.417 36.6848 118.891 36.646 118.32C36.6201 117.94 36.4423 117.558 36.1658 117.182L31.8346 111.289C31.6601 111.052 31.7123 110.719 31.9513 110.546Z" fill="#FF9C27"/>
<path fill-rule="evenodd" clip-rule="evenodd" d="M51.3785 105.983C51.6666 106.051 51.8453 106.337 51.7775 106.623L50.7319 111.034L50.5717 111.15C49.6975 111.783 48.5201 112.984 47.8551 114.495C47.1997 115.984 47.043 117.763 48.1552 119.648C48.3049 119.901 48.2192 120.227 47.9639 120.375C47.7086 120.524 47.3802 120.438 47.2305 120.184C45.9145 117.954 46.1062 115.81 46.8728 114.068C47.5894 112.439 48.809 111.152 49.7784 110.41L50.7341 106.378C50.8019 106.092 51.0904 105.915 51.3785 105.983Z" fill="#FF9C27"/>
<path fill-rule="evenodd" clip-rule="evenodd" d="M35.6473 104.925C35.8863 104.752 36.2216 104.804 36.3962 105.042L41.9794 112.637C42.2854 113.054 42.5594 113.575 42.5946 114.178C42.6329 114.834 42.5474 115.657 42.1126 116.325C41.651 117.034 40.8523 117.483 39.6716 117.448C39.3757 117.439 39.1428 117.194 39.1513 116.9C39.1598 116.606 39.4066 116.376 39.7024 116.384C40.5558 116.41 40.9784 116.106 41.2121 115.747C41.4726 115.347 41.5565 114.785 41.5246 114.239C41.506 113.92 41.3565 113.594 41.1139 113.264L35.5306 105.668C35.3561 105.431 35.4083 105.098 35.6473 104.925Z" fill="#FF9C27"/>
<path d="M130.271 123.547C129.362 121.806 129.518 119.928 130.619 119.351L142.576 113.084C143.677 112.507 145.305 113.45 146.214 115.191L158.386 138.511C162.019 145.472 159.989 150.291 155.587 152.599C151.184 154.906 146.076 153.828 142.443 146.867L130.271 123.547Z" fill="#FFAE4E"/>
<path fill-rule="evenodd" clip-rule="evenodd" d="M168.279 174.028C166.581 174.87 164.524 174.174 163.686 172.475L162.61 170.296C162.673 171.618 161.964 172.916 160.703 173.541C159.005 174.383 156.948 173.688 156.109 171.988L153.851 167.413C153.609 167.64 153.331 167.837 153.018 167.992C151.32 168.834 149.263 168.139 148.424 166.439L143.836 157.143C143.652 156.77 143.542 156.38 143.5 155.989C140.765 150.006 143.262 142.886 149.195 139.944C154.341 137.392 160.413 138.808 163.945 143.021L172.318 145.74C174.407 146.418 175.312 148.568 174.34 150.542C173.454 152.341 171.315 153.372 169.361 153.027L174.251 162.934C175.103 164.66 174.395 166.752 172.671 167.607C171.248 168.312 169.577 167.955 168.557 166.838L169.835 169.426C170.674 171.125 169.977 173.186 168.279 174.028Z" fill="#FFBA68"/>
<path fill-rule="evenodd" clip-rule="evenodd" d="M154.071 165.301C154.306 165.185 154.402 164.9 154.286 164.664L151.284 158.581C151.057 158.12 150.726 157.651 150.228 157.343C149.682 157.005 148.995 156.731 148.262 156.801C147.503 156.874 146.789 157.305 146.196 158.191C146.05 158.409 146.108 158.705 146.326 158.851C146.543 158.997 146.838 158.938 146.985 158.72C147.453 158.021 147.931 157.788 148.351 157.748C148.796 157.705 149.272 157.87 149.728 158.153C150.019 158.333 150.249 158.631 150.432 159.003L153.435 165.086C153.551 165.322 153.836 165.418 154.071 165.301Z" fill="#FF9C27"/>
<path fill-rule="evenodd" clip-rule="evenodd" d="M166.09 151.412C166.155 151.157 166.001 150.899 165.747 150.834L161.686 149.799L161.528 149.878C160.634 150.321 159.143 150.769 157.615 150.664C156.108 150.56 154.575 149.924 153.498 148.203C153.359 147.981 153.066 147.914 152.844 148.053C152.622 148.193 152.554 148.487 152.694 148.709C153.96 150.733 155.796 151.492 157.549 151.613C159.191 151.725 160.768 151.281 161.788 150.807L165.512 151.756C165.766 151.82 166.025 151.667 166.09 151.412Z" fill="#FF9C27"/>
<path fill-rule="evenodd" clip-rule="evenodd" d="M167.235 164.47C167.471 164.353 167.567 164.068 167.451 163.832L163.524 155.877C163.408 155.641 163.123 155.545 162.888 155.662C162.653 155.778 162.556 156.063 162.673 156.299L166.599 164.254C166.715 164.49 167 164.586 167.235 164.47Z" fill="#FF9C27"/>
<path fill-rule="evenodd" clip-rule="evenodd" d="M161.28 166.715C161.515 166.598 161.611 166.313 161.495 166.077L157.569 158.122C157.453 157.886 157.168 157.79 156.933 157.907C156.697 158.023 156.601 158.309 156.717 158.544L160.644 166.5C160.76 166.735 161.045 166.831 161.28 166.715Z" fill="#FF9C27"/>
<path fill-rule="evenodd" clip-rule="evenodd" d="M153.156 157.92C153.197 157.929 153.262 157.939 153.355 157.948C153.576 157.969 153.904 157.979 154.319 157.964C155.146 157.934 156.286 157.806 157.555 157.493C160.098 156.866 163.102 155.509 165.159 152.769C165.316 152.559 165.614 152.516 165.824 152.674C166.033 152.831 166.075 153.129 165.918 153.339C163.682 156.318 160.446 157.759 157.781 158.416C156.446 158.746 155.24 158.882 154.352 158.914C153.909 158.93 153.538 158.921 153.263 158.895C153.128 158.882 153.003 158.863 152.901 158.837C152.851 158.825 152.789 158.806 152.729 158.777C152.692 158.76 152.55 158.692 152.469 158.528C152.354 158.293 152.451 158.008 152.686 157.892C152.842 157.815 153.02 157.831 153.156 157.92Z" fill="#FF9C27"/>
<path d="M88.8981 135.658C87.7522 136.968 85.6419 136.992 84.1847 135.713L68.3535 121.814C66.8962 120.535 66.6439 118.436 67.7898 117.126L83.1436 99.5769C87.7273 94.3379 96.1683 94.2392 101.997 99.3565C107.826 104.474 108.836 112.869 104.252 118.108L88.8981 135.658Z" fill="#4C8BFF"/>
<path d="M128.171 135.297C129.1 136.769 131.181 137.121 132.819 136.084L150.618 124.814C152.256 123.777 152.832 121.743 151.903 120.271L139.463 100.549C135.75 94.6608 127.427 93.2515 120.873 97.4008C114.32 101.55 112.018 109.687 115.732 115.574L128.171 135.297Z" fill="#4C8BFF"/>
<path d="M81.0073 124.452C81.0073 109.186 84.0038 93.8877 94.6031 93.8877H124.03C134.63 93.8877 139.007 103.72 139.007 118.985L136.93 163.796C136.774 166.562 134.898 168.864 132.368 169.393C116.471 172.719 102.443 172.719 86.5459 169.393C84.0444 168.87 81.204 166.528 81.0073 163.796V124.452Z" fill="#4C8BFF"/>
<path d="M97.0073 85.6984C97.0073 80.8882 100.168 76.9888 104.066 76.9888H113.948C117.847 76.9888 121.007 80.8882 121.007 85.6984V94.408C121.007 99.2182 117.847 103.118 113.949 103.118H104.066C100.168 103.118 97.0073 99.2182 97.0073 94.408V85.6984Z" fill="#FFAB48"/>
<path d="M154.464 69.916C154.464 77.8155 147.803 84.2192 139.587 84.2192C131.371 84.2192 124.71 77.8155 124.71 69.916C124.71 62.0166 131.371 55.6128 139.587 55.6128C147.803 55.6128 154.464 62.0166 154.464 69.916Z" fill="#FF9C27"/>
<path d="M100.202 65.4443C100.202 73.3438 93.5411 79.7476 85.3248 79.7476C77.1084 79.7476 70.4478 73.3438 70.4478 65.4443C70.4478 57.5449 77.1084 51.1411 85.3248 51.1411C93.5411 51.1411 100.202 57.5449 100.202 65.4443Z" fill="#ED8000"/>
<path d="M147.713 61.8843C147.713 80.1103 130.948 94.8853 110.268 94.8853C89.587 94.8853 70.8352 77.5993 79.3622 64.5568C72.7732 45.2431 89.587 28.8833 110.268 28.8833C130.948 28.8833 147.713 43.6584 147.713 61.8843Z" fill="#FFBA68"/>
<path d="M147.966 61.9485C147.966 80.2651 130.812 95.1137 109.652 95.1137C88.4925 95.1137 69.306 77.7416 78.0307 64.6342C71.289 45.2245 88.4925 28.7832 109.652 28.7832C130.812 28.7832 147.966 43.6318 147.966 61.9485Z" fill="#FFBA68"/>
<mask id="mask0_3_4539" style="mask-type:alpha" maskUnits="userSpaceOnUse" x="75" y="28" width="73" height="68">
<path d="M147.966 61.9485C147.966 80.2651 130.812 95.1137 109.652 95.1137C88.4925 95.1137 69.306 77.7416 78.0307 64.6342C71.289 45.2245 88.4925 28.7832 109.652 28.7832C130.812 28.7832 147.966 43.6318 147.966 61.9485Z" fill="#FFBA68"/>
</mask>
<g mask="url(#mask0_3_4539)">
<path d="M146.965 79.2561C146.965 86.9629 140.422 93.2105 132.35 93.2105C124.278 93.2105 117.734 86.9629 117.734 79.2561C117.734 71.5493 124.278 65.3018 132.35 65.3018C140.422 65.3018 146.965 71.5493 146.965 79.2561Z" fill="#FF9A24"/>
<path d="M91.9276 77.0208C91.9276 84.7276 85.384 90.9751 77.312 90.9751C69.2399 90.9751 62.6963 84.7276 62.6963 77.0208C62.6963 69.314 69.2399 63.0664 77.312 63.0664C85.384 63.0664 91.9276 69.314 91.9276 77.0208Z" fill="#FF9A24"/>
</g>
<path d="M104.575 71.5011C104.575 72.3297 103.877 73.0013 103.015 73.0013C102.153 73.0013 101.455 72.3297 101.455 71.5011C101.455 70.6726 102.153 70.001 103.015 70.001C103.877 70.001 104.575 70.6726 104.575 71.5011Z" fill="black"/>
<path d="M98.3938 64.7305C98.3938 66.3075 96.9966 67.5858 95.2731 67.5858C93.5495 67.5858 92.1523 66.3075 92.1523 64.7305C92.1523 63.1535 93.5495 61.8752 95.2731 61.8752C96.9966 61.8752 98.3938 63.1535 98.3938 64.7305Z" fill="black"/>
<path fill-rule="evenodd" clip-rule="evenodd" d="M96.8689 60.6497C97.1745 61.1708 96.9605 61.8198 96.391 62.0994C96.0814 62.2514 95.6123 62.5625 95.2786 62.9508C94.947 63.3365 94.8557 63.6621 94.9298 63.9457C95.0801 64.5209 94.6923 65.0986 94.0637 65.2361C93.4351 65.3736 92.8037 65.0188 92.6534 64.4437C92.3507 63.2849 92.8629 62.297 93.4388 61.627C94.0125 60.9595 94.7549 60.4724 95.2844 60.2124C95.8539 59.9328 96.5633 60.1286 96.8689 60.6497Z" fill="black"/>
<path d="M118.589 66.2212C118.589 67.7982 117.191 69.0765 115.468 69.0765C113.744 69.0765 112.347 67.7982 112.347 66.2212C112.347 64.6443 113.744 63.3659 115.468 63.3659C117.191 63.3659 118.589 64.6443 118.589 66.2212Z" fill="black"/>
<path fill-rule="evenodd" clip-rule="evenodd" d="M117.064 62.1404C117.369 62.6615 117.155 63.3106 116.586 63.5901C116.276 63.7421 115.807 64.0532 115.473 64.4415C115.142 64.8273 115.051 65.1528 115.125 65.4365C115.275 66.0116 114.887 66.5893 114.259 66.7268C113.63 66.8643 112.999 66.5095 112.848 65.9344C112.545 64.7757 113.058 63.7877 113.634 63.1177C114.207 62.4502 114.95 61.9631 115.479 61.7031C116.049 61.4235 116.758 61.6193 117.064 62.1404Z" fill="black"/>
<path fill-rule="evenodd" clip-rule="evenodd" d="M97.5698 77.345C103.091 79.2266 109.077 79.449 114.733 77.9827C115.341 77.8252 115.681 77.2724 115.493 76.7479C115.305 76.2235 114.66 75.9259 114.053 76.0833C108.895 77.4205 103.436 77.2177 98.4008 75.5019C97.808 75.2998 97.1414 75.5487 96.9119 76.0577C96.6824 76.5666 96.977 77.143 97.5698 77.345Z" fill="#A75A00"/>
<path fill-rule="evenodd" clip-rule="evenodd" d="M94.9463 57.0137C93.8258 57.1745 92.9196 57.7338 92.4592 58.1681C92.0286 58.5742 91.337 58.5678 90.9146 58.1538C90.4922 57.7398 90.4988 57.0749 90.9294 56.6688C91.6693 55.9709 92.9835 55.1718 94.6237 54.9364C96.3132 54.6939 98.2785 55.062 100.199 56.6147C100.661 56.9879 100.72 57.6504 100.332 58.0943C99.9438 58.5382 99.2548 58.5954 98.7931 58.2222C97.3529 57.0579 96.0174 56.8599 94.9463 57.0137Z" fill="#905A09"/>
<path fill-rule="evenodd" clip-rule="evenodd" d="M117.427 57.7583C116.307 57.9191 115.401 58.4785 114.94 58.9127C114.51 59.3188 113.818 59.3125 113.396 58.8984C112.973 58.4844 112.98 57.8196 113.41 57.4134C114.15 56.7156 115.465 55.9165 117.105 55.6811C118.794 55.4386 120.759 55.8067 122.68 57.3593C123.142 57.7326 123.201 58.395 122.813 58.8389C122.425 59.2828 121.736 59.34 121.274 58.9668C119.834 57.8025 118.498 57.6045 117.427 57.7583Z" fill="#905A09"/>
<path d="M97.846 19.5415C108.908 24.2917 117.122 12.1421 136.685 27.6692C142.198 27.2434 137.517 8.29526 145.099 19.3397C151.164 28.1752 145.409 30.2472 142.027 29.4197C155.183 38.6063 159.169 69.3265 142.901 66.1023C123.168 62.1914 128.935 35.1933 123.548 41.2173C118.162 47.2412 81.6415 64.4078 73.362 60.8485C67.5339 58.343 67.8759 50.3858 73.8974 48.3938C73.2012 47.5575 69.15 48.0106 68.218 42.4287C67.2859 36.8467 80.8895 27.7627 86.5948 25.679C86.8476 19.7976 86.1473 14.5179 97.846 19.5415Z" fill="black"/>
<path fill-rule="evenodd" clip-rule="evenodd" d="M123.232 94.4946C124.565 95.516 124.819 97.4251 123.797 98.7588L122.741 100.138C119.528 104.334 114.544 106.795 109.259 106.795C104.173 106.795 99.3559 104.516 96.1303 100.585L94.6976 98.8389C93.6321 97.5402 93.821 95.6236 95.1197 94.5581C96.4184 93.4925 98.3349 93.6815 99.4005 94.9801L100.833 96.7262C102.903 99.2491 105.995 100.712 109.259 100.712C112.65 100.712 115.849 99.1323 117.911 96.4394L118.968 95.0602C119.989 93.7265 121.898 93.4733 123.232 94.4946Z" fill="#337AFF"/>
<path fill-rule="evenodd" clip-rule="evenodd" d="M84.2501 108.678C84.642 108.812 84.851 109.238 84.7169 109.63C82.5947 115.834 82.2574 123.387 82.2573 130.887C82.2573 131.302 81.9215 131.637 81.5073 131.637C81.0931 131.637 80.7573 131.302 80.7573 130.887C80.7574 123.388 81.0866 115.608 83.2977 109.145C83.4318 108.753 83.8582 108.544 84.2501 108.678Z" fill="#337AFF"/>
<path fill-rule="evenodd" clip-rule="evenodd" d="M124.877 111.159C125.279 111.061 125.685 111.308 125.783 111.711C126.045 112.792 126.261 113.832 126.473 114.85C126.917 116.992 127.342 119.034 128.131 121.147C129.273 124.202 131.171 127.343 135.007 130.803C135.314 131.081 135.339 131.555 135.062 131.862C134.784 132.17 134.31 132.195 134.002 131.917C129.993 128.301 127.955 124.959 126.726 121.672C125.896 119.451 125.432 117.223 124.974 115.022C124.768 114.03 124.562 113.043 124.325 112.064C124.227 111.662 124.474 111.256 124.877 111.159Z" fill="#337AFF"/>
<path d="M12.0076 71.1269C23.0277 71.3297 28.6856 85.1431 21.095 86.538C13.5044 87.933 26.9266 66.8998 35.1514 86.1828" stroke="#5991FF" stroke-width="4" stroke-linecap="round"/>
<path fill-rule="evenodd" clip-rule="evenodd" d="M35.6604 72.568C34.7223 71.9849 34.4351 70.7521 35.019 69.8145L36.2012 67.9159C37.0646 66.5294 36.6376 64.7063 35.2483 63.8474C32.3156 62.0342 31.1566 58.3468 32.5248 55.1824L33.5949 52.7076C34.0333 51.6938 35.2109 51.2268 36.2252 51.6644C37.2395 52.102 37.7065 53.2785 37.2682 54.2923L36.1981 56.7671C35.617 58.1109 36.1092 59.6769 37.3546 60.4469C40.6261 62.4694 41.6316 66.7625 39.5985 70.0275L38.4162 71.926C37.8323 72.8636 36.5985 73.151 35.6604 72.568Z" fill="#F97F7F"/>
<rect x="16.1299" y="30.5" width="5.0675" height="9.41108" rx="2.53375" transform="rotate(25.979 16.1299 30.5)" fill="#5991FF"/>
<rect x="44.1631" y="78.6196" width="3.05013" height="5.66452" rx="1.52506" transform="rotate(101.402 44.1631 78.6196)" fill="#FFC266"/>
<rect x="29.1201" y="43.4863" width="3.05013" height="5.66452" rx="1.52506" transform="rotate(10.8393 29.1201 43.4863)" fill="#FFC266"/>
<rect x="1" y="63.6475" width="3.05013" height="5.66452" rx="1.52506" transform="rotate(-44.5764 1 63.6475)" fill="#F97F7F"/>
<path d="M100.298 7.901C99.9843 4.60221 102.671 1.79332 105.98 1.95933L123.823 2.85433C127.132 3.02033 129.524 6.08396 128.882 9.33483L125.904 24.4215C125.381 27.0689 122.995 28.9318 120.3 28.7966L106.89 28.124C104.195 27.9888 102.007 25.8965 101.752 23.21L100.298 7.901Z" fill="#333333"/>
<mask id="mask1_3_4539" style="mask-type:alpha" maskUnits="userSpaceOnUse" x="100" y="0" width="30" height="30">
<path d="M100.278 6.75551C100.003 3.47746 102.68 0.708585 105.966 0.873388L123.947 1.77534C127.233 1.94014 129.62 4.96305 129.018 8.19713L125.809 25.4488C125.311 28.1242 122.911 30.019 120.193 29.8827L106.888 29.2153C104.17 29.0789 101.972 26.9535 101.745 24.2418L100.278 6.75551Z" fill="#D9D9D9"/>
</mask>
<g mask="url(#mask1_3_4539)">
<path d="M100.948 20.21L127.002 21.5168L126.766 26.2209L100.712 24.9141L100.948 20.21Z" fill="#DB0000"/>
</g>
<path d="M97.5576 27.8291C96.6112 26.3402 97.7391 24.4035 99.5011 24.4919L128.014 25.9221C129.776 26.0105 130.704 28.0503 129.614 29.4371L127.967 31.5311C127.531 32.0853 126.854 32.3937 126.149 32.3584L100.712 31.0824C100.008 31.0471 99.3648 30.6724 98.9866 30.0774L97.5576 27.8291Z" fill="#333333"/>
<path d="M107.195 100.164C109.172 101.368 109.104 104.262 107.072 105.372L99.6433 109.431C97.6115 110.541 95.1396 109.035 95.194 106.72L95.3927 98.2572C95.4471 95.9425 97.9869 94.5549 99.9644 95.7594L107.195 100.164Z" fill="#F25050"/>
<path d="M109.45 100.217C107.418 101.327 107.35 104.22 109.328 105.425L116.558 109.829C118.535 111.034 121.075 109.646 121.129 107.331L121.328 98.8681C121.382 96.5535 118.911 95.0477 116.879 96.1579L109.45 100.217Z" fill="#F25050"/>
<path d="M104.905 101.489C104.934 100.244 105.968 99.258 107.213 99.2874L109.469 99.3405C110.714 99.3698 111.7 100.403 111.671 101.649L111.618 103.904C111.589 105.149 110.555 106.135 109.31 106.106L107.054 106.053C105.809 106.023 104.823 104.99 104.852 103.745L104.905 101.489Z" fill="#E20000"/>
</svg>
